<?xml version="1.0" encoding="utf-8"?>
<!-- Generator: Adobe Illustrator 16.0.3, SVG Export Plug-In . SVG Version: 6.00 Build 0)  -->
<!DOCTYPE svg PUBLIC "-//W3C//DTD SVG 1.1//EN" "http://www.w3.org/Graphics/SVG/1.1/DTD/svg11.dtd">
<svg version="1.1" id="Capa_1" xmlns="http://www.w3.org/2000/svg" xmlns:xlink="http://www.w3.org/1999/xlink" x="0px" y="0px"
	 width="60px" height="60px" viewBox="0 0 60 60" enable-background="new 0 0 60 60" xml:space="preserve">
<path fill="#FFFFFF" d="M43.313,16.411c-0.021-0.229-0.03-0.459-0.04-0.689c-0.02-0.42-0.04-0.84-0.05-1.27
	c-0.021-0.971-0.05-1.971-0.19-3.011c-0.42-3.21-1.66-5.58-3.779-7.25c-1.45-1.14-3.051-1.97-4.76-2.47
	c-0.561-0.161-1.131-0.28-1.701-0.4l-0.92-0.21h-2.609l-0.45,0.141c-3.06,0.46-5.49,1.87-7.26,4.2c-0.73,0.17-1.61,0.479-2.47,1.068
	c-3.04,2.121-4.26,6.821-2.77,10.211c-0.42,0.55-0.89,1.289-1.13,2.19c-0.48,1.859-0.24,3.8,0.76,5.939
	c0.31,0.659,1.25,2.69,3.49,3.38c0.13,0.04,0.17,0.051,0.31,0.381c0.21,0.489,0.48,0.949,0.8,1.369c0.19,0.25,0.36,0.5,0.54,0.761
	c0.54,0.78,1.15,1.659,2.02,2.399c1.85,1.58,4.06,2.381,6.6,2.381c0.71,0,1.45-0.061,2.21-0.189c2.979-0.492,5.35-2.051,6.84-4.51
	c0.49-0.812,0.979-1.63,1.459-2.45c0.881-0.321,1.681-0.851,2.341-1.561c1.329-1.42,2.079-3.199,2.29-5.46
	C45.063,18.981,44.254,17.411,43.313,16.411 M42.354,21.122c-0.02,0.188-0.04,0.369-0.07,0.55c-0.05,0.37-0.13,0.729-0.229,1.069
	c-0.05,0.181-0.11,0.351-0.171,0.511c-0.26,0.67-0.619,1.3-1.149,1.859h-0.01c-0.49,0.53-1.101,0.891-1.81,1.04
	c-0.15,0.03-0.261,0.09-0.351,0.181c-0.09,0.079-0.16,0.188-0.24,0.319c-0.56,0.971-1.13,1.92-1.71,2.88
	c-0.07,0.12-0.15,0.239-0.23,0.351c-0.079,0.12-0.159,0.229-0.239,0.34c-0.16,0.21-0.34,0.41-0.521,0.6
	c-1.09,1.121-2.49,1.779-4.129,2.05c-2.48,0.42-4.831,0.039-6.771-1.619c-0.11-0.092-0.21-0.191-0.31-0.3
	c-0.51-0.5-0.93-1.131-1.36-1.75c-0.17-0.24-0.34-0.48-0.52-0.721c-0.2-0.26-0.37-0.55-0.5-0.85c-0.19-0.43-0.41-0.8-0.71-1.101
	c-0.3-0.3-0.68-0.529-1.17-0.681c-0.35-0.109-0.65-0.29-0.92-0.54c-0.44-0.389-0.78-0.938-1.04-1.509
	c-0.63-1.35-0.98-2.781-0.6-4.25c0.15-0.58,0.54-1.12,0.93-1.59c0.44-0.521,0.61-1.23,0.26-1.84c-0.87-1.53-0.79-3.67,0-5.391
	c0.3-0.66,0.7-1.26,1.2-1.729c0.17-0.16,0.34-0.3,0.52-0.431c0.67-0.46,1.41-0.68,2.2-0.801c0.13-0.019,0.27-0.089,0.37-0.179
	c0.04-0.031,0.07-0.071,0.09-0.101c0.37-0.56,0.77-1.05,1.22-1.479c1.32-1.29,2.96-2.03,4.91-2.3c0.11-0.021,0.21-0.061,0.32-0.101
	h1.971c0.739,0.17,1.479,0.3,2.199,0.511c1.43,0.42,2.74,1.109,3.91,2.029c0.23,0.181,0.439,0.369,0.63,0.561
	c0.39,0.38,0.73,0.809,1,1.27c0.69,1.13,1.06,2.42,1.23,3.789c0.18,1.341,0.149,2.721,0.22,4.08c0.03,0.5,0.061,1.011,0.109,1.521
	c0.011,0.119,0.061,0.279,0.141,0.34c0.12,0.099,0.23,0.189,0.34,0.29C42.244,18.821,42.474,19.911,42.354,21.122"/>
<path fill="#FFFFFF" d="M53.631,49.947c-0.017-0.74-0.086-1.484-0.254-2.201c-0.719-3.043-2.654-4.998-5.414-6.092
	c-3.322-1.33-6.656-2.658-9.979-3.988c-1.139-0.455-1.709-0.201-2.12,0.959c-0.781,2.131-1.54,4.262-2.32,6.404
	c-0.054,0.146-0.127,0.305-0.201,0.484c-0.465-0.822-0.644-1.582-0.147-2.416c0.222-0.348,0.349-0.76,0.464-1.158
	c0.232-0.781-0.264-1.531-1.066-1.541c-1.77-0.031-3.528-0.031-5.288-0.002c-0.792,0.014-1.358,0.777-1.146,1.541
	c0.106,0.381,0.232,0.771,0.433,1.107c0.506,0.834,0.369,1.625-0.127,2.48c-0.094-0.223-0.158-0.381-0.211-0.537
	c-0.791-2.174-1.571-4.336-2.363-6.5c-0.347-0.971-0.97-1.266-1.909-0.887c-3.439,1.371-6.889,2.723-10.317,4.137
	c-3.534,1.455-5.496,4.42-5.507,8.227v8.123c0,0.816,0.661,1.479,1.477,1.479h44.549c0.991,0,1.466-0.477,1.466-1.467l-2.637,0.012
	V58.1h2.637C53.66,55.389,53.69,52.668,53.631,49.947 M51.022,56.021v0.906H8.793v-6.951c0.011-2.754,1.351-4.758,3.872-5.803
	c2.627-1.076,5.264-2.121,7.901-3.174l1.256-0.496c0.38,1.055,0.77,2.121,1.15,3.174l1.76,4.662
	c0.493,1.303,2.275,1.455,2.982,0.254l1.017-1.729c0.887-1.508,0.939-2.818,0.676-3.852h0.991c-0.253,1.014-0.211,2.301,0.645,3.809
	l0.989,1.744c0.681,1.199,2.441,1.094,2.972-0.18l0.774-1.85l0.063-0.148c0.063-0.168,0.127-0.314,0.189-0.463l1.952-5.422
	l9.009,3.596c1.92,0.771,3.08,1.932,3.65,3.65c0.211,0.645,0.338,1.383,0.348,2.131C51.043,51.918,51.032,54.006,51.022,56.021"/>
</svg>
