<?xml version="1.0" encoding="utf-8"?>
<!-- Generator: Adobe Illustrator 16.0.3, SVG Export Plug-In . SVG Version: 6.00 Build 0)  -->
<!DOCTYPE svg PUBLIC "-//W3C//DTD SVG 1.1//EN" "http://www.w3.org/Graphics/SVG/1.1/DTD/svg11.dtd">
<svg version="1.1" id="Capa_1" xmlns="http://www.w3.org/2000/svg" xmlns:xlink="http://www.w3.org/1999/xlink" x="0px" y="0px"
	 width="115px" height="115px" viewBox="0 0 115 115" enable-background="new 0 0 115 115" xml:space="preserve">
<rect x="-0.912" y="-0.751" fill="#EAEAEA" width="117.027" height="117.026"/>
<path fill="#106B40" d="M82.764,59.994h-19.88c-0.55,0-1.05,0.22-1.41,0.59c-0.36,0.359-0.59,0.859-0.59,1.41c0,1.109,0.899,2,2,2
	h15.88c1.09,0,1.99,0.89,2,1.98h-12.09c-0.561,0-1.061,0.219-1.42,0.58c-0.36,0.359-0.58,0.859-0.58,1.42c0,1.1,0.89,2,2,2h12.09
	v6.989c0,1.101-0.9,2-2,2h-2.79v-3.19c0-0.549-0.22-1.049-0.58-1.41c-0.36-0.369-0.86-0.59-1.42-0.59c-1.1,0-2,0.9-2,2v3.19h-7.46
	v-5.11c0-0.619-0.5-1.119-1.12-1.119h-2.2c0-0.121-0.01-0.25-0.04-0.371l-4.41-20.739c-0.199-0.92-1.02-1.58-1.96-1.58h-11.1
	c-0.94,0-1.76,0.649-1.95,1.58l-4.479,20.739c-0.03,0.121-0.04,0.25-0.04,0.371h-2.24c-0.62,0-1.12,0.5-1.12,1.119v8
	c0,0.61,0.5,1.11,1.12,1.11h47.79c1.1,0,2-0.899,2-2v-18.97C84.764,60.895,83.863,59.994,82.764,59.994 M44.953,55.624
	c0.2-0.931,1.021-1.58,1.961-1.58h4.63c0.939,0,1.76,0.66,1.96,1.58l0.93,4.37h-3.63c-0.55,0-1.05,0.22-1.42,0.59
	c-0.36,0.359-0.58,0.859-0.58,1.41c0,1.109,0.89,2,2,2h4.1c0.13,0,0.25-0.01,0.37-0.04l0.43,2.021h-4.18
	c-0.55,0-1.05,0.219-1.41,0.58c-0.359,0.359-0.59,0.859-0.59,1.42c0,1.1,0.9,2,2,2h4.82c0.07,0,0.14,0,0.21-0.011l0.59,2.771h-15.88
	L44.953,55.624z M59.394,78.964h-20.42c-0.62,0-1.12-0.5-1.12-1.11c0-0.619,0.5-1.119,1.12-1.119h20.42c0.62,0,1.12,0.5,1.12,1.119
	C60.514,78.464,60.014,78.964,59.394,78.964"/>
<path fill="#106B40" d="M72.268,38.972c0.09,3.13-1.84,5.83-4.58,6.88c-1.22,0.471-2.54-0.489-2.54-1.81v-0.259
	c0-0.771,0.51-1.411,1.21-1.71c1.57-0.661,2.48-2.58,1.51-4.471c-0.41-0.789-1.189-1.319-2.069-1.47
	c-0.74-0.13-1.391-0.05-1.971,0.24c-0.729,0.33-1.31,0.941-1.59,1.701c-0.03,0.059-0.06,0.12-0.08,0.189
	c0,0.011-0.01,0.021-0.01,0.03c-0.19,0.33-0.54,0.55-0.94,0.55c-0.39,0-0.739-0.22-0.93-0.55c0-0.009-0.01-0.019-0.01-0.03
	c-0.02-0.069-0.05-0.13-0.08-0.189c-0.28-0.76-0.86-1.371-1.59-1.701c-0.4-0.2-0.84-0.299-1.311-0.299c-0.42,0-0.819,0.08-1.18,0.24
	c-0.84,0.34-1.5,1.039-1.8,1.909v0.021l-0.01,0.009c0,0.031,0,0.062-0.021,0.09c0,0.03-0.01,0.05-0.02,0.07
	c-0.141,0.321-0.45,0.54-0.82,0.54c-0.4,0-0.74-0.259-0.85-0.629c-0.011-0.031-0.021-0.061-0.021-0.09
	c-0.29-0.881-0.939-1.58-1.79-1.92c-0.359-0.16-0.76-0.24-1.18-0.24c-1.73,0-3.13,1.399-3.13,3.12c0,0.509,0.13,1,0.35,1.429
	c0.19,0.38,0.46,0.71,0.79,0.98l0.021,0.02l2.76,3.38c0.29,0.35,0.439,0.781,0.439,1.2c0.03,0.6-0.22,1.201-0.72,1.611
	c-0.37,0.3-0.82,0.449-1.26,0.449c-0.59,0-1.16-0.25-1.561-0.739l-2.569-3.141c-1.79-1.689-2.72-4.3-2.011-7.05
	c0.591-2.299,2.381-4.179,4.641-4.9c2.229-0.72,4.4-0.31,6.09,0.77c1.11-0.709,2.43-1.129,3.85-1.129
	c1.461,0,2.801,0.439,3.92,1.189h0.011c1.03-0.689,2.239-1.109,3.54-1.18C68.678,31.872,72.147,35.052,72.268,38.972"/>
</svg>
