<?xml version="1.0" encoding="utf-8"?>
<!-- Generator: Adobe Illustrator 16.0.3, SVG Export Plug-In . SVG Version: 6.00 Build 0)  -->
<!DOCTYPE svg PUBLIC "-//W3C//DTD SVG 1.1//EN" "http://www.w3.org/Graphics/SVG/1.1/DTD/svg11.dtd">
<svg version="1.1" id="Capa_1" xmlns="http://www.w3.org/2000/svg" xmlns:xlink="http://www.w3.org/1999/xlink" x="0px" y="0px"
	 width="115px" height="115px" viewBox="0 0 115 115" enable-background="new 0 0 115 115" xml:space="preserve">
<rect x="-0.912" y="-0.751" fill="#EAEAEA" width="117.027" height="117.026"/>
<path fill="#106B40" d="M77.482,55.202c0.027,11.404-9.326,20.772-20.761,20.794c-11.413,0.022-20.778-9.332-20.786-20.762
	c-0.008-11.442,9.3-20.763,20.754-20.786C68.105,34.424,77.455,43.755,77.482,55.202 M72.678,55.223
	c0.004-8.78-7.187-15.979-15.968-15.987c-8.765-0.007-15.976,7.199-15.986,15.977C40.715,63.984,47.91,71.18,56.7,71.191
	C65.48,71.201,72.674,64.013,72.678,55.223"/>
<path fill="#106B40" d="M70.58,74.717c2.183-1.576,4.045-3.432,5.621-5.626c0.127,0.114,0.229,0.201,0.323,0.296
	c3.072,3.072,6.142,6.145,9.214,9.217c0.68,0.68,1.145,1.471,1.281,2.438c0.219,1.531-0.564,3.197-1.859,3.938
	c-1.533,0.877-3.293,0.821-4.537-0.291c-1.319-1.182-2.549-2.465-3.807-3.716c-1.98-1.97-3.953-3.948-5.928-5.925
	C70.791,74.949,70.701,74.847,70.58,74.717"/>
<path fill="#106B40" d="M56.703,67.975c-4.98-0.158-8.725-2.391-11.206-6.725c-0.123-0.213-0.136-0.364,0.057-0.541
	c0.442-0.404,0.847-0.852,1.307-1.233c0.893-0.743,1.878-1.207,3.103-1.073c0.903,0.098,1.74-0.168,2.443-0.785
	c0.727-0.638,1.067-1.454,1.097-2.4c0.005-0.157-0.11-0.336-0.211-0.474c-1.448-1.99-2.323-4.178-2.145-6.672
	c0.066-0.92,0.273-1.851,0.562-2.729c0.454-1.385,1.488-2.228,2.884-2.613c1.39-0.384,2.787-0.383,4.181-0.013
	c1.772,0.471,2.787,1.681,3.214,3.407c0.786,3.187,0.026,6.046-1.89,8.652c-0.119,0.161-0.188,0.408-0.177,0.608
	c0.104,1.697,1.384,2.938,3.107,3.027c0.223,0.012,0.45,0.033,0.67,0.002c0.993-0.147,1.812,0.271,2.549,0.838
	c0.572,0.441,1.071,0.975,1.606,1.461c0.168,0.154,0.197,0.289,0.074,0.506c-2.183,3.854-5.427,6.138-9.848,6.693
	c-0.194,0.024-0.388,0.053-0.583,0.062C57.234,67.982,56.969,67.975,56.703,67.975"/>
</svg>
