<?xml version="1.0" encoding="utf-8"?>
<!-- Generator: Adobe Illustrator 16.0.3, SVG Export Plug-In . SVG Version: 6.00 Build 0)  -->
<!DOCTYPE svg PUBLIC "-//W3C//DTD SVG 1.1//EN" "http://www.w3.org/Graphics/SVG/1.1/DTD/svg11.dtd">
<svg version="1.1" id="Capa_1" xmlns="http://www.w3.org/2000/svg" xmlns:xlink="http://www.w3.org/1999/xlink" x="0px" y="0px"
	 width="115px" height="115px" viewBox="0 0 115 115" enable-background="new 0 0 115 115" xml:space="preserve">
<rect x="-1" y="-0.996" fill="#EAEAEA" width="117.026" height="117.027"/>
<path fill="#106B40" d="M77.382,69.569c-0.952-0.024-1.91,0.056-2.857-0.11c-0.475-0.084-0.808,0.004-0.912,0.551
	c-0.217,1.127-1.011,1.773-1.957,2.277c-1.965,1.045-4.094,1.571-6.256,2.012c-2.453,0.502-4.951,0.646-7.428,0.65
	c-3.937,0.008-7.884-0.189-11.692-1.395c-0.992-0.313-1.969-0.666-2.87-1.188c-0.877-0.51-1.686-1.13-1.897-2.189
	c-0.14-0.704-0.474-0.822-1.13-0.754c-2.653,0.279-5.3,0.277-7.918-0.342c-0.77-0.182-1.537-0.371-2.248-0.719
	c-1.445-0.705-1.787-1.713-1.09-3.172c0.421-0.883,1.084-1.563,1.87-2.129c1.531-1.104,3.285-1.602,5.127-1.729
	c2.907-0.199,5.735,0.07,8.185,1.893c0.405,0.302,0.752,0.251,1.123-0.042c5.279-4.155,15.575-4.248,21.244-1.671
	c0.912,0.414,1.78,0.902,2.591,1.477c0.577,0.406,1.01,0.449,1.667,0.055c3.94-2.356,8.021-2.351,12.142-0.494
	c1.033,0.467,1.883,1.207,2.518,2.166c1.148,1.738,0.796,2.98-1.128,3.736C82.192,69.346,79.816,69.666,77.382,69.569
	 M67.491,68.377c-0.83-1.047-1.787-1.531-2.767-1.985c-3.45-1.601-7.083-1.569-10.745-1.149c-1.406,0.161-2.764,0.577-4.032,1.223
	c-0.59,0.3-1.15,0.66-1.705,1.023c-0.27,0.178-0.608,0.383-0.57,0.756c0.043,0.412,0.454,0.434,0.765,0.514
	c1.287,0.326,2.584,0.611,3.907,0.75c3.395,0.363,6.791,0.375,10.184-0.004C64.165,69.322,65.792,69.059,67.491,68.377
	 M37.626,66.814c1.104-0.049,2.394,0.066,3.664-0.216c0.564-0.125,1.305-0.14,1.388-0.825c0.088-0.721-0.697-0.88-1.192-1.063
	c-2.703-1.002-5.426-1.004-8.125,0.045c-0.464,0.181-0.888,0.453-1.216,0.845c-0.236,0.28-0.234,0.54,0.133,0.687
	c0.266,0.106,0.554,0.162,0.836,0.227C34.542,66.84,35.997,66.813,37.626,66.814 M77.472,66.774c0.871,0,1.742,0.015,2.611-0.004
	c0.793-0.017,1.57-0.175,2.32-0.41c0.584-0.183,0.646-0.485,0.201-0.887c-0.627-0.565-1.386-0.914-2.195-1.126
	c-1.795-0.471-3.621-0.411-5.432-0.146c-0.814,0.117-1.613,0.41-2.292,0.92c-0.545,0.407-0.501,0.953,0.106,1.256
	c0.254,0.127,0.555,0.164,0.837,0.227C74.897,66.885,76.189,66.762,77.472,66.774"/>
<path fill="#106B40" d="M57.495,57.389c-6.312,0.401-12.6-5.414-12.557-12.443c0.043-6.886,5.642-12.525,12.525-12.545
	c6.662-0.018,12.634,5.348,12.644,12.578C70.118,52.578,63.253,57.818,57.495,57.389 M50.189,44.955
	c-0.299,3.803,3.365,7.446,7.317,7.37c4.091-0.079,7.3-3.299,7.369-7.393c0.064-3.933-3.631-7.409-7.404-7.351
	C53.528,37.641,49.977,40.899,50.189,44.955"/>
<path fill="#106B40" d="M71.099,53.683c0.004-3.545,2.789-6.343,6.303-6.328c3.488,0.014,6.365,2.841,6.406,6.298
	c0.043,3.382-2.951,6.378-6.359,6.363C73.952,60,71.097,57.152,71.099,53.683 M77.529,50.091c-2.076-0.027-3.612,1.397-3.66,3.394
	c-0.05,2.099,1.456,3.751,3.449,3.783c1.96,0.031,3.722-1.676,3.733-3.585C81.064,51.985,79.544,49.937,77.529,50.091"/>
<path fill="#106B40" d="M31.254,53.596c0.013-3.394,2.868-6.215,6.311-6.239c3.371-0.025,6.396,2.869,6.35,6.217
	c-0.052,3.798-2.794,6.407-6.377,6.42C34.037,60.009,31.241,57.086,31.254,53.596 M37.597,50.09
	c-2.063-0.165-3.655,1.809-3.615,3.47c0.051,2.066,1.564,3.717,3.553,3.708c1.926-0.01,3.604-1.649,3.652-3.532
	C41.229,52.076,39.778,49.917,37.597,50.09"/>
</svg>
