<?xml version="1.0" encoding="utf-8"?>
<!-- Generator: Adobe Illustrator 16.0.3, SVG Export Plug-In . SVG Version: 6.00 Build 0)  -->
<!DOCTYPE svg PUBLIC "-//W3C//DTD SVG 1.1//EN" "http://www.w3.org/Graphics/SVG/1.1/DTD/svg11.dtd">
<svg version="1.1" id="Capa_1" xmlns="http://www.w3.org/2000/svg" xmlns:xlink="http://www.w3.org/1999/xlink" x="0px" y="0px"
	 width="150px" height="100px" viewBox="0 0 150 100" enable-background="new 0 0 150 100" xml:space="preserve">
<path fill="#60B63D" d="M111.958,57.65l0.476,4.215c0.006,0.079-0.02,0.105-0.093,0.105h-0.681c-0.055,0-0.067-0.026-0.073-0.105
	l-0.166-1.423h-1.885l-0.622,1.423c-0.04,0.079-0.053,0.105-0.105,0.105h-0.683c-0.073,0-0.092-0.026-0.06-0.105l1.847-4.215
	c0.304-0.695,0.437-0.773,1.125-0.773C111.779,56.877,111.871,56.955,111.958,57.65 M110.646,57.868l-0.799,1.858h1.502
	l-0.213-1.858c-0.027-0.237-0.027-0.271-0.212-0.271C110.773,57.598,110.753,57.631,110.646,57.868"/>
<path fill="#60B63D" d="M116.9,56.955c0.08,0.014,0.111,0.053,0.099,0.139l-0.065,0.418c-0.014,0.072-0.047,0.105-0.113,0.105
	h-1.369c-1.032,0-1.277,0.417-1.502,1.826c-0.219,1.408-0.106,1.82,0.926,1.82h0.92l0.271-1.682
	c0.006-0.066,0.047-0.105,0.112-0.105h0.595c0.066,0,0.094,0.039,0.086,0.105l-0.304,1.926c-0.02,0.086-0.026,0.112-0.053,0.146
	c-0.187,0.29-1.06,0.351-1.747,0.351c-1.648,0-1.973-0.582-1.661-2.561c0.312-1.984,0.821-2.566,2.476-2.566
	C115.986,56.877,116.583,56.895,116.9,56.955"/>
<path fill="#60B63D" d="M121.333,58.523c-0.166,1.031-0.503,1.41-1.29,1.529l0.833,1.785c0.04,0.074,0,0.133-0.099,0.133h-0.615
	c-0.152,0-0.191-0.047-0.245-0.146l-0.813-1.714h-0.814l-0.277,1.76c-0.014,0.08-0.033,0.1-0.113,0.1h-0.654
	c-0.079,0-0.1-0.02-0.079-0.1l0.767-4.85c0.006-0.072,0.033-0.086,0.112-0.092c0.537-0.041,1.132-0.053,1.588-0.053
	C121.102,56.877,121.551,57.18,121.333,58.523 M118.686,57.617l-0.291,1.813h0.748c0.946,0,1.205-0.08,1.33-0.887
	c0.127-0.787-0.093-0.926-1.039-0.926H118.686z"/>
<path fill="#60B63D" d="M125.839,59.449c-0.311,1.973-0.834,2.555-2.487,2.555c-1.647,0-1.979-0.582-1.668-2.555
	c0.312-1.984,0.834-2.574,2.481-2.574C125.819,56.875,126.15,57.465,125.839,59.449 M122.537,59.449
	c-0.225,1.396-0.1,1.814,0.934,1.814c1.031,0,1.289-0.418,1.508-1.814c0.231-1.408,0.105-1.832-0.926-1.832
	C123.02,57.617,122.762,58.041,122.537,59.449"/>
<path fill-rule="evenodd" clip-rule="evenodd" fill="#106B40" d="M25.466,53.02c0.557-0.276,1.11-0.572,1.656-0.887
	c0.938-0.541,1.834-1.125,2.688-1.75c0.206-0.136,0.342-0.369,0.342-0.635c0-0.265-0.136-0.499-0.343-0.635
	c-0.856-0.627-1.754-1.215-2.694-1.759c-0.542-0.313-1.09-0.607-1.643-0.883c-0.678-0.337-1.381,0.414-1.003,1.07l1.05,1.82
	c0.136,0.237,0.136,0.529-0.001,0.767l-1.053,1.82C24.086,52.604,24.787,53.355,25.466,53.02"/>
<path fill-rule="evenodd" clip-rule="evenodd" fill="#106B40" d="M44.732,46.471c-0.557,0.276-1.11,0.572-1.656,0.887
	c-0.938,0.54-1.834,1.125-2.689,1.749c-0.205,0.136-0.341,0.369-0.341,0.635c0,0.265,0.136,0.499,0.343,0.635
	c0.856,0.627,1.754,1.215,2.694,1.759c0.542,0.313,1.09,0.606,1.643,0.884c0.678,0.336,1.381-0.414,1.003-1.07l-1.05-1.821
	c-0.136-0.237-0.136-0.529,0.001-0.766l1.053-1.82C46.112,46.887,45.412,46.135,44.732,46.471"/>
<path fill-rule="evenodd" clip-rule="evenodd" fill="#106B40" d="M31.825,40.111c0.276,0.558,0.572,1.11,0.887,1.657
	c0.54,0.937,1.125,1.833,1.749,2.688c0.136,0.206,0.369,0.342,0.635,0.342s0.499-0.137,0.635-0.344
	c0.627-0.856,1.215-1.754,1.759-2.694c0.314-0.542,0.608-1.089,0.883-1.643c0.337-0.677-0.414-1.38-1.069-1.002l-1.822,1.049
	c-0.237,0.136-0.529,0.136-0.766-0.001l-1.82-1.052C32.241,38.731,31.489,39.433,31.825,40.111"/>
<path fill-rule="evenodd" clip-rule="evenodd" fill="#106B40" d="M38.373,59.379c-0.276-0.559-0.571-1.11-0.886-1.656
	c-0.541-0.938-1.126-1.834-1.75-2.689c-0.136-0.205-0.369-0.342-0.634-0.342c-0.266,0-0.5,0.137-0.635,0.344
	c-0.628,0.856-1.216,1.754-1.76,2.694c-0.313,0.542-0.607,1.091-0.882,1.644c-0.338,0.678,0.413,1.381,1.069,1.002l1.821-1.049
	c0.238-0.137,0.53-0.137,0.766,0l1.82,1.053C37.957,60.758,38.709,60.058,38.373,59.379"/>
<path fill-rule="evenodd" clip-rule="evenodd" fill="#106B40" d="M25.972,45.248c0.589,0.199,1.189,0.381,1.798,0.544
	c1.045,0.282,2.093,0.501,3.138,0.664c0.242,0.05,0.503-0.019,0.69-0.207c0.188-0.188,0.257-0.449,0.207-0.691
	c-0.162-1.049-0.381-2.1-0.661-3.149c-0.162-0.605-0.341-1.201-0.538-1.786c-0.24-0.718-1.268-0.684-1.465,0.047l-0.546,2.03
	c-0.071,0.264-0.278,0.47-0.542,0.541l-2.031,0.542C25.29,43.978,25.254,45.006,25.972,45.248"/>
<path fill-rule="evenodd" clip-rule="evenodd" fill="#106B40" d="M44.226,54.242c-0.589-0.199-1.189-0.381-1.798-0.545
	c-1.045-0.281-2.093-0.5-3.138-0.664c-0.242-0.049-0.503,0.02-0.69,0.207c-0.188,0.188-0.257,0.449-0.207,0.691
	c0.162,1.051,0.381,2.102,0.661,3.148c0.162,0.605,0.341,1.201,0.538,1.787c0.24,0.717,1.268,0.685,1.465-0.047l0.546-2.031
	c0.071-0.264,0.278-0.469,0.542-0.541l2.031-0.541C44.908,55.512,44.944,54.484,44.226,54.242"/>
<path fill-rule="evenodd" clip-rule="evenodd" fill="#106B40" d="M39.596,40.618c-0.199,0.59-0.38,1.189-0.544,1.798
	c-0.281,1.045-0.501,2.093-0.664,3.139c-0.049,0.241,0.02,0.502,0.207,0.689c0.188,0.188,0.45,0.257,0.692,0.207
	c1.049-0.162,2.1-0.381,3.148-0.661c0.605-0.161,1.201-0.341,1.787-0.537c0.717-0.241,0.684-1.269-0.047-1.466l-2.031-0.545
	c-0.264-0.072-0.47-0.278-0.541-0.542l-0.542-2.032C40.866,39.936,39.838,39.901,39.596,40.618"/>
<path fill-rule="evenodd" clip-rule="evenodd" fill="#106B40" d="M30.603,58.872c0.199-0.589,0.38-1.188,0.544-1.798
	c0.281-1.045,0.501-2.094,0.664-3.139c0.049-0.242-0.02-0.502-0.207-0.689c-0.188-0.188-0.45-0.257-0.692-0.207
	c-1.049,0.162-2.1,0.381-3.148,0.661c-0.605,0.162-1.201,0.341-1.787,0.538c-0.718,0.24-0.684,1.268,0.047,1.465l2.03,0.547
	c0.265,0.07,0.471,0.275,0.542,0.541l0.542,2.031C29.333,59.555,30.36,59.59,30.603,58.872"/>
<path fill="#111F4A" d="M67.434,44.461c0.205,0,0.261,0.056,0.187,0.28l-2.894,8.137c-0.653,1.773-1.101,1.998-2.707,1.998
	c-1.866,0-2.016-0.225-2.109-1.998l-0.335-4.704l-1.811,4.704c-0.691,1.773-0.877,1.998-2.763,1.998
	c-1.605,0-1.96-0.225-2.034-1.998l-0.336-8.137c0-0.224,0.055-0.28,0.261-0.28h1.848c0.13,0,0.168,0.056,0.187,0.28l0.186,7.635
	c0.037,0.502,0.131,0.541,0.336,0.541c0.243,0,0.28-0.039,0.485-0.541l2.931-7.336c0.093-0.205,0.187-0.28,0.318-0.28h1.885
	c0.13,0,0.186,0.075,0.205,0.28l0.616,7.336c0.037,0.502,0.075,0.541,0.317,0.541c0.206,0,0.299-0.039,0.504-0.541l2.632-7.635
	c0.075-0.224,0.112-0.28,0.261-0.28H67.434z"/>
<path fill="#111F4A" d="M70.886,44.461c0.187,0,0.262,0.093,0.224,0.28l-1.549,9.763c-0.018,0.187-0.13,0.279-0.317,0.279h-1.699
	c-0.186,0-0.261-0.093-0.242-0.279l1.549-9.763c0.037-0.187,0.149-0.28,0.336-0.28H70.886z M71.857,41.512
	c-0.13,0.821-0.69,1.288-1.549,1.288c-0.877,0-1.288-0.467-1.157-1.288c0.13-0.821,0.69-1.288,1.568-1.288
	C71.577,40.224,71.988,40.691,71.857,41.512"/>
<path fill="#111F4A" d="M81.227,48.792l-0.896,5.712c-0.037,0.186-0.168,0.28-0.354,0.28h-1.68c-0.188,0-0.262-0.095-0.242-0.28
	l0.858-5.301c0.429-2.763,0.019-2.875-1.735-2.875H75.03l-1.288,8.176c-0.037,0.186-0.149,0.28-0.336,0.28h-1.717
	c-0.187,0-0.243-0.095-0.224-0.28l1.512-9.539c0.037-0.242,0.13-0.261,0.317-0.298c1.419-0.28,3.099-0.299,4.237-0.299
	C80.967,44.368,81.844,44.891,81.227,48.792"/>
<path fill="#111F4A" d="M86.658,41.605c0.225-0.056,0.299,0.056,0.262,0.262l-0.41,2.613h1.848c0.205,0,0.28,0.093,0.262,0.28
	l-0.207,1.176c-0.018,0.205-0.129,0.298-0.336,0.298h-1.847l-0.896,5.694c-0.131,0.821,0.093,0.989,1.008,0.989h0.82
	c0.205,0,0.299,0.074,0.281,0.261l-0.188,1.231c-0.057,0.205-0.168,0.299-0.354,0.336c-0.523,0.094-1.064,0.131-1.345,0.131
	c-1.457,0-2.95-0.037-2.595-2.276l1.008-6.366h-1.064c-0.205,0-0.279-0.093-0.261-0.298l0.187-1.176
	c0.019-0.187,0.15-0.28,0.336-0.28h1.082l0.337-2.147c0.036-0.186,0.131-0.261,0.299-0.299L86.658,41.605z"/>
<path fill="#111F4A" d="M95.281,44.574c0.168,0.056,0.262,0.13,0.225,0.335l-0.186,1.14c-0.02,0.205-0.15,0.298-0.338,0.279h-1.697
	c-1.121,0-1.494,0.188-1.625,1.008l-1.139,7.168c-0.018,0.188-0.131,0.279-0.316,0.279h-1.699c-0.186,0-0.262-0.092-0.242-0.279
	l1.23-7.746c0.355-2.222,2.147-2.39,3.547-2.39C93.527,44.368,94.797,44.425,95.281,44.574"/>
<path fill="#111F4A" d="M103.793,47.429l-1.045,6.497c-0.019,0.242-0.094,0.428-0.448,0.541c-1.026,0.28-2.687,0.41-4.274,0.41
	c-2.613,0-3.863-0.41-3.453-3.117c0.393-2.371,1.735-2.967,4.031-2.967h2.707l0.15-0.972c0.148-1.045-0.375-1.493-1.867-1.493h-3.08
	c-0.206,0-0.262-0.056-0.225-0.299l0.188-1.12c0.037-0.223,0.111-0.261,0.298-0.298c1.157-0.206,2.166-0.243,3.136-0.243
	C103.195,44.368,104.11,45.414,103.793,47.429 M98.474,50.416c-0.989,0-1.493,0.317-1.644,1.25
	c-0.168,1.064,0.299,1.326,1.681,1.326c0.467,0,1.493-0.037,2.166-0.205l0.373-2.371H98.474z"/>
<path fill="#111F4A" d="M115.049,40.523c0.205,0,0.28,0.075,0.242,0.28l-2.109,13.345c-0.037,0.263-0.186,0.355-0.41,0.393
	c-1.625,0.262-2.707,0.336-4.051,0.336c-3.77,0-4.404-1.064-3.752-5.245c0.654-4.144,1.644-5.264,5.114-5.264
	c0.972,0,1.737,0.037,2.371,0.112l0.579-3.677c0.018-0.205,0.131-0.28,0.316-0.28H115.049z M110.102,46.328
	c-2.09,0-2.444,0.616-2.875,3.304c-0.41,2.538-0.316,3.286,1.774,3.286c0.597,0,1.455-0.057,2.128-0.15l1.026-6.439H110.102z"/>
<path fill="#111F4A" d="M124.361,49.427l-0.093,0.56c-0.056,0.355-0.168,0.504-0.709,0.504h-5.899
	c-0.26,1.979,0.113,2.427,1.924,2.427h3.174c0.186,0,0.261,0.093,0.242,0.279l-0.188,1.158c-0.018,0.205-0.131,0.279-0.316,0.316
	c-0.989,0.15-2.166,0.205-3.36,0.205c-3.64,0-4.293-1.045-3.64-5.245c0.672-4.218,1.68-5.264,5.302-5.264
	C124.307,44.368,124.979,45.375,124.361,49.427 M117.904,48.867h4.273c0.299-2.016-0.018-2.539-1.679-2.539
	C118.763,46.328,118.259,46.851,117.904,48.867"/>
</svg>
