<?xml version="1.0" encoding="utf-8"?>
<!-- Generator: Adobe Illustrator 16.0.3, SVG Export Plug-In . SVG Version: 6.00 Build 0)  -->
<!DOCTYPE svg PUBLIC "-//W3C//DTD SVG 1.1//EN" "http://www.w3.org/Graphics/SVG/1.1/DTD/svg11.dtd">
<svg version="1.1" id="Capa_1" xmlns="http://www.w3.org/2000/svg" xmlns:xlink="http://www.w3.org/1999/xlink" x="0px" y="0px"
	 width="115px" height="115px" viewBox="0 0 115 115" enable-background="new 0 0 115 115" xml:space="preserve">
<rect x="-1" y="-0.996" fill="#EAEAEA" width="117.027" height="117.027"/>
<path fill="#106B40" d="M86.52,51.564c0-10.81-8.6-19.93-19.47-20.49c-6.66-0.34-12.77,2.569-16.76,7.33
	c-0.42-0.04-0.84-0.051-1.26-0.051c-11.32,0-20.521,9.211-20.521,20.522c0,3.898,1.08,7.648,3.141,10.92l-1.29,5.449
	c-0.271,1.12,0.109,2.29,0.989,3.04c0.881,0.75,2.091,0.938,3.16,0.511l4.67-1.91c3.011,1.649,6.381,2.508,9.851,2.508h0.46
	c6.08-0.139,11.54-2.979,15.22-7.348c0.06,0,0.11,0.008,0.17,0.008c0.38,0.021,0.76,0.031,1.14,0.031c3.49,0,6.891-0.88,9.931-2.57
	l5.37,1.59c1.109,0.33,2.3,0.011,3.09-0.83c0.8-0.84,1.06-2.029,0.68-3.119l-1.649-4.77c1.89-3.051,2.949-6.532,3.069-10.162
	C86.52,52.004,86.52,51.784,86.52,51.564 M49.38,74.393c-3.069,0.072-6.08-0.768-8.66-2.408l-1.09-0.689l-3.54,1.449l0.94-3.96
	l-0.66-0.931c-1.87-2.631-2.86-5.729-2.86-8.979c0-7.911,5.96-14.471,13.641-15.402c0.609-0.08,1.239-0.12,1.88-0.12
	c1.22,0,2.42,0.141,3.56,0.42c2.84,0.66,5.391,2.12,7.391,4.12c2.81,2.8,4.56,6.671,4.569,10.931c0.011,2.85-0.77,5.529-2.13,7.84
	c-0.92,1.59-2.12,3-3.53,4.16C56.29,72.984,52.98,74.314,49.38,74.393 M78.64,60.574l-0.76,1.051l1.26,3.619l-3.909-1.16
	l-0.95,0.609c-1.96,1.24-4.141,2.011-6.42,2.279c1.09-2.488,1.689-5.229,1.689-8.098v-0.061c-0.03-8.791-5.62-16.301-13.43-19.2
	c2.69-2.23,6.149-3.57,9.87-3.57c0.26,0,0.529,0.009,0.8,0.02c8.39,0.43,14.99,7.61,14.72,16
	C81.41,55.143,80.42,58.084,78.64,60.574"/>
<path fill="#106B40" d="M49.672,64.197v1.033c0,0.461-0.373,0.834-0.834,0.834c-0.46,0-0.834-0.373-0.834-0.834v-0.984
	c-1.165-0.07-2.296-0.348-3.185-0.758c-0.563-0.258-0.813-0.92-0.558-1.484c0.254-0.564,0.918-0.816,1.479-0.557
	c0.686,0.317,1.475,0.539,2.263,0.615v-2.785c-1.852-0.451-3.919-1.067-3.919-3.454c0-1.767,1.284-3.285,3.919-3.584v-1.018
	c0-0.461,0.374-0.834,0.834-0.834c0.461,0,0.834,0.373,0.834,0.834v0.983c0.845,0.069,1.675,0.243,2.406,0.528
	c0.566,0.221,0.817,0.887,0.589,1.451c-0.231,0.569-0.876,0.833-1.449,0.613c-0.521-0.2-1.039-0.329-1.546-0.389v2.834
	c1.851,0.434,3.886,1.051,3.886,3.402C53.558,62.379,52.29,63.88,49.672,64.197 M48.004,56.825v-2.368
	c-0.883,0.201-1.234,0.684-1.234,1.235C46.77,56.276,47.27,56.592,48.004,56.825 M50.873,60.845c0-0.584-0.483-0.899-1.201-1.149
	v2.299C50.506,61.813,50.873,61.378,50.873,60.845"/>
</svg>
