<?xml version="1.0" encoding="utf-8"?>
<!-- Generator: Adobe Illustrator 16.0.3, SVG Export Plug-In . SVG Version: 6.00 Build 0)  -->
<!DOCTYPE svg PUBLIC "-//W3C//DTD SVG 1.1//EN" "http://www.w3.org/Graphics/SVG/1.1/DTD/svg11.dtd">
<svg version="1.1" id="Capa_1" xmlns="http://www.w3.org/2000/svg" xmlns:xlink="http://www.w3.org/1999/xlink" x="0px" y="0px"
	 width="115px" height="115px" viewBox="0 0 115 115" enable-background="new 0 0 115 115" xml:space="preserve">
<rect x="-1.026" y="-0.996" fill="#EAEAEA" width="117.026" height="117.027"/>
<path fill="#106B40" d="M69.143,82.918h-22.87c-4.604,0-8.351-3.746-8.351-8.348V42.332c0-4.605,3.746-8.351,8.351-8.351h22.87
	c4.605,0,8.351,3.746,8.351,8.351V74.57C77.493,79.172,73.748,82.918,69.143,82.918 M46.272,38.98c-1.848,0-3.351,1.503-3.351,3.351
	V74.57c0,1.846,1.503,3.348,3.351,3.348h22.87c1.848,0,3.351-1.502,3.351-3.348V42.332c0-1.848-1.503-3.351-3.351-3.351H46.272z"/>
<path fill="#106B40" d="M64.134,52.998l-4.167-2.763l13.261-19.998c0.586-0.885,1.994-0.981,3.146-0.219
	c1.15,0.763,1.607,2.098,1.021,2.982L64.134,52.998z"/>
<path fill="#106B40" d="M59.509,50.988l4.167,2.763l-2.781,1.387c-0.756,0.376-1.635-0.207-1.581-1.048L59.509,50.988z"/>
<path fill="#106B40" d="M66.506,65.581H48.909c-1.38,0-2.5-1.118-2.5-2.5c0-1.38,1.12-2.5,2.5-2.5h17.597c1.381,0,2.5,1.12,2.5,2.5
	C69.006,64.463,67.887,65.581,66.506,65.581"/>
<path fill="#106B40" d="M66.506,72.937H48.909c-1.38,0-2.5-1.118-2.5-2.5c0-1.38,1.12-2.5,2.5-2.5h17.597c1.381,0,2.5,1.12,2.5,2.5
	C69.006,71.818,67.887,72.937,66.506,72.937"/>
</svg>
