<?xml version="1.0" encoding="utf-8"?>
<!-- Generator: Adobe Illustrator 16.0.3, SVG Export Plug-In . SVG Version: 6.00 Build 0)  -->
<!DOCTYPE svg PUBLIC "-//W3C//DTD SVG 1.1//EN" "http://www.w3.org/Graphics/SVG/1.1/DTD/svg11.dtd">
<svg version="1.1" id="Capa_1" xmlns="http://www.w3.org/2000/svg" xmlns:xlink="http://www.w3.org/1999/xlink" x="0px" y="0px"
	 width="115px" height="115px" viewBox="0 0 115 115" enable-background="new 0 0 115 115" xml:space="preserve">
<rect x="-0.998" y="-0.1" fill="#EAEAEA" width="117.027" height="117.028"/>
<rect x="54.041" y="57.619" fill="#106B40" width="13.93" height="4"/>
<path fill="#106B40" d="M79.111,34.654v16.234h-4V38.654c0-1.135-0.92-2.056-2.055-2.056h-31.59c-1.135,0-2.055,0.921-2.055,2.056
	v8.385h-4V34.654c0-1.135,0.92-2.056,2.055-2.056h39.59C78.191,32.598,79.111,33.52,79.111,34.654"/>
<path fill="#106B40" d="M28.782,49.022v29.983c0,1.094,0.888,1.983,1.984,1.983h21.292c1.096,0,1.984-0.89,1.984-1.983V49.022
	c0-1.095-0.888-1.983-1.984-1.983H30.766C29.669,47.04,28.782,47.927,28.782,49.022 M48.058,76.989H34.766
	c-1.096,0-1.984-0.89-1.984-1.983V53.022c0-1.095,0.888-1.983,1.984-1.983h13.292c1.096,0,1.984,0.888,1.984,1.983v21.983
	C50.042,76.1,49.154,76.989,48.058,76.989"/>
<path fill="#106B40" d="M67.972,52.519v26.839c0,0.901,0.729,1.631,1.631,1.631h15.019c0.899,0,1.631-0.729,1.631-1.631V52.519
	c0-0.9-0.731-1.631-1.631-1.631H69.603C68.701,50.888,67.972,51.619,67.972,52.519 M80.621,76.989h-7.019
	c-0.901,0-1.631-0.729-1.631-1.631V56.519c0-0.9,0.729-1.631,1.631-1.631h7.019c0.899,0,1.631,0.731,1.631,1.631v18.839
	C82.252,76.26,81.521,76.989,80.621,76.989"/>
</svg>
