<?xml version="1.0" encoding="utf-8"?>
<!-- Generator: Adobe Illustrator 16.0.3, SVG Export Plug-In . SVG Version: 6.00 Build 0)  -->
<!DOCTYPE svg PUBLIC "-//W3C//DTD SVG 1.1//EN" "http://www.w3.org/Graphics/SVG/1.1/DTD/svg11.dtd">
<svg version="1.1" id="Capa_1" xmlns="http://www.w3.org/2000/svg" xmlns:xlink="http://www.w3.org/1999/xlink" x="0px" y="0px"
	 width="300px" height="300px" viewBox="0 0 200 200" enable-background="new 0 0 200 200" xml:space="preserve">
<path fill="#FFFFFF" d="M155.564,174.314l1.176,10.404c0.017,0.196-0.049,0.262-0.229,0.262h-1.682
	c-0.131,0-0.164-0.065-0.181-0.262l-0.407-3.511h-4.656l-1.534,3.511c-0.099,0.196-0.132,0.262-0.263,0.262h-1.682
	c-0.18,0-0.229-0.065-0.146-0.262l4.557-10.404c0.751-1.715,1.078-1.91,2.775-1.91C155.123,172.404,155.352,172.6,155.564,174.314
	 M152.33,174.854l-1.976,4.59h3.707l-0.522-4.59c-0.064-0.588-0.064-0.668-0.522-0.668
	C152.642,174.186,152.593,174.266,152.33,174.854"/>
<path fill="#FFFFFF" d="M167.766,172.6c0.195,0.033,0.277,0.131,0.244,0.344l-0.162,1.029c-0.033,0.18-0.115,0.26-0.278,0.26h-3.382
	c-2.547,0-3.151,1.029-3.707,4.509c-0.539,3.479-0.262,4.491,2.287,4.491h2.27l0.67-4.148c0.016-0.162,0.115-0.261,0.277-0.261h1.47
	c0.164,0,0.229,0.099,0.213,0.261l-0.751,4.754c-0.049,0.213-0.066,0.277-0.131,0.358c-0.457,0.72-2.613,0.866-4.313,0.866
	c-4.066,0-4.867-1.438-4.1-6.321c0.768-4.899,2.025-6.337,6.109-6.337C165.512,172.404,166.98,172.453,167.766,172.6"/>
<path fill="#FFFFFF" d="M178.708,176.471c-0.408,2.548-1.241,3.48-3.185,3.773l2.057,4.41c0.099,0.18,0,0.326-0.244,0.326h-1.518
	c-0.377,0-0.476-0.113-0.605-0.359l-2.01-4.229h-2.008l-0.687,4.345c-0.033,0.195-0.082,0.244-0.278,0.244h-1.617
	c-0.194,0-0.244-0.049-0.194-0.244l1.894-11.973c0.016-0.18,0.082-0.213,0.278-0.229c1.323-0.099,2.792-0.131,3.919-0.131
	C178.136,172.404,179.246,173.156,178.708,176.471 M172.175,174.233l-0.72,4.476h1.847c2.336,0,2.974-0.197,3.283-2.188
	c0.312-1.944-0.229-2.287-2.563-2.287H172.175z"/>
<path fill="#FFFFFF" d="M189.83,178.758c-0.768,4.867-2.057,6.305-6.141,6.305c-4.067,0-4.885-1.438-4.116-6.305
	c0.769-4.9,2.058-6.354,6.125-6.354C189.782,172.404,190.598,173.857,189.83,178.758 M181.68,178.758
	c-0.555,3.445-0.244,4.475,2.304,4.475s3.185-1.029,3.724-4.475c0.572-3.479,0.262-4.523-2.287-4.523
	C182.872,174.234,182.236,175.279,181.68,178.758"/>
<path fill-rule="evenodd" clip-rule="evenodd" fill="#FFFFFF" d="M53.527,78.998c2.52-1.249,5.017-2.584,7.487-4.008
	c4.238-2.441,8.288-5.086,12.151-7.908c0.93-0.614,1.545-1.668,1.545-2.867c0-1.201-0.618-2.257-1.551-2.871
	c-3.87-2.836-7.929-5.493-12.176-7.951c-2.451-1.417-4.928-2.748-7.428-3.992c-3.064-1.523-6.24,1.87-4.532,4.835l4.743,8.232
	c0.617,1.072,0.616,2.392-0.003,3.463l-4.76,8.225C47.289,77.118,50.46,80.518,53.527,78.998"/>
<path fill-rule="evenodd" clip-rule="evenodd" fill="#FFFFFF" d="M140.615,49.399c-2.521,1.249-5.018,2.584-7.488,4.008
	c-4.237,2.442-8.287,5.087-12.15,7.908c-0.93,0.615-1.545,1.668-1.545,2.867c0,1.201,0.618,2.257,1.551,2.871
	c3.87,2.836,7.93,5.494,12.176,7.951c2.451,1.418,4.929,2.748,7.429,3.992c3.063,1.524,6.239-1.869,4.532-4.835l-4.744-8.232
	c-0.616-1.072-0.615-2.391,0.004-3.462l4.76-8.226C146.853,51.279,143.682,47.879,140.615,49.399"/>
<path fill-rule="evenodd" clip-rule="evenodd" fill="#FFFFFF" d="M82.271,20.655c1.249,2.52,2.584,5.017,4.008,7.487
	c2.441,4.238,5.086,8.288,7.908,12.151c0.614,0.93,1.668,1.545,2.867,1.545c1.201,0,2.257-0.618,2.871-1.551
	c2.836-3.87,5.493-7.929,7.952-12.176c1.416-2.451,2.748-4.928,3.99-7.428c1.525-3.064-1.869-6.24-4.834-4.532L98.8,20.894
	c-1.071,0.617-2.391,0.616-3.462-0.004l-8.225-4.759C84.15,14.417,80.751,17.588,82.271,20.655"/>
<path fill-rule="evenodd" clip-rule="evenodd" fill="#FFFFFF" d="M111.87,107.742c-1.249-2.52-2.584-5.016-4.008-7.486
	c-2.441-4.238-5.087-8.288-7.908-12.151c-0.614-0.93-1.668-1.545-2.867-1.545c-1.201,0-2.257,0.618-2.871,1.551
	c-2.836,3.87-5.493,7.929-7.951,12.176c-1.417,2.45-2.748,4.928-3.991,7.428c-1.525,3.064,1.869,6.24,4.834,4.531l8.233-4.742
	c1.071-0.617,2.391-0.616,3.462,0.003l8.225,4.761C109.991,113.98,113.391,110.811,111.87,107.742"/>
<path fill-rule="evenodd" clip-rule="evenodd" fill="#FFFFFF" d="M55.816,43.874c2.665,0.898,5.375,1.72,8.128,2.46
	c4.723,1.271,9.457,2.264,14.184,3c1.092,0.224,2.272-0.087,3.12-0.935c0.849-0.85,1.159-2.032,0.933-3.127
	c-0.731-4.741-1.722-9.491-2.988-14.232c-0.73-2.735-1.541-5.427-2.43-8.075c-1.088-3.244-5.734-3.09-6.622,0.215l-2.468,9.174
	c-0.321,1.194-1.255,2.127-2.45,2.445l-9.182,2.451C52.734,38.132,52.573,42.78,55.816,43.874"/>
<path fill-rule="evenodd" clip-rule="evenodd" fill="#FFFFFF" d="M138.326,84.524c-2.666-0.899-5.375-1.72-8.129-2.46
	c-4.723-1.27-9.457-2.264-14.184-3c-1.092-0.224-2.271,0.087-3.12,0.935c-0.849,0.849-1.159,2.032-0.933,3.127
	c0.73,4.741,1.722,9.491,2.988,14.232c0.729,2.734,1.541,5.427,2.43,8.076c1.088,3.244,5.734,3.09,6.621-0.215l2.469-9.176
	c0.32-1.194,1.255-2.126,2.45-2.445l9.182-2.451C141.408,90.264,141.568,85.618,138.326,84.524"/>
<path fill-rule="evenodd" clip-rule="evenodd" fill="#FFFFFF" d="M117.396,22.944c-0.898,2.665-1.721,5.375-2.461,8.128
	c-1.27,4.723-2.264,9.457-3,14.184c-0.224,1.092,0.088,2.272,0.936,3.119c0.85,0.85,2.031,1.16,3.127,0.934
	c4.74-0.731,9.49-1.722,14.232-2.988c2.733-0.729,5.427-1.542,8.074-2.43c3.244-1.088,3.09-5.734-0.215-6.622l-9.174-2.468
	c-1.195-0.321-2.127-1.255-2.445-2.45l-2.451-9.182C123.136,19.862,118.49,19.7,117.396,22.944"/>
<path fill-rule="evenodd" clip-rule="evenodd" fill="#FFFFFF" d="M76.746,105.453c0.898-2.664,1.72-5.375,2.46-8.127
	c1.27-4.724,2.264-9.457,3-14.184c0.224-1.092-0.087-2.272-0.935-3.12c-0.849-0.849-2.032-1.159-3.127-0.934
	c-4.741,0.731-9.491,1.723-14.232,2.988c-2.734,0.73-5.427,1.541-8.075,2.43c-3.244,1.088-3.09,5.734,0.215,6.622l9.174,2.468
	c1.195,0.321,2.127,1.255,2.446,2.45l2.451,9.182C71.005,108.535,75.651,108.697,76.746,105.453"/>
<path fill="#FFFFFF" d="M45.661,141.76c0.507,0,0.645,0.139,0.46,0.691l-7.141,20.088c-1.612,4.378-2.719,4.932-6.681,4.932
	c-4.608,0-4.977-0.554-5.207-4.932l-0.829-11.609l-4.47,11.609c-1.704,4.378-2.165,4.932-6.819,4.932
	c-3.962,0-4.838-0.554-5.022-4.932l-0.829-20.088c0-0.553,0.138-0.691,0.645-0.691h4.561c0.323,0,0.415,0.139,0.461,0.691
	l0.461,18.845c0.092,1.243,0.322,1.337,0.829,1.337c0.599,0,0.691-0.094,1.198-1.337l7.234-18.108
	c0.231-0.506,0.461-0.691,0.783-0.691h4.654c0.322,0,0.461,0.186,0.507,0.691l1.52,18.108c0.092,1.243,0.185,1.337,0.783,1.337
	c0.507,0,0.737-0.094,1.244-1.337l6.497-18.845c0.184-0.553,0.277-0.691,0.645-0.691H45.661z"/>
<path fill="#FFFFFF" d="M54.183,141.76c0.461,0,0.646,0.23,0.553,0.691l-3.824,24.098c-0.046,0.461-0.322,0.691-0.783,0.691h-4.193
	c-0.461,0-0.646-0.23-0.599-0.691l3.825-24.098c0.091-0.461,0.368-0.691,0.829-0.691H54.183z M56.579,134.479
	c-0.322,2.026-1.705,3.179-3.824,3.179c-2.165,0-3.179-1.152-2.856-3.179c0.322-2.026,1.704-3.179,3.87-3.179
	C55.888,131.301,56.902,132.453,56.579,134.479"/>
<path fill="#FFFFFF" d="M79.709,152.449l-2.212,14.1c-0.092,0.461-0.414,0.691-0.875,0.691h-4.147c-0.46,0-0.645-0.23-0.599-0.691
	l2.12-13.086c1.059-6.818,0.046-7.096-4.286-7.096h-5.298l-3.179,20.182c-0.092,0.461-0.369,0.691-0.83,0.691h-4.239
	c-0.461,0-0.599-0.23-0.553-0.691l3.732-23.545c0.093-0.599,0.323-0.646,0.783-0.736c3.502-0.691,7.649-0.737,10.459-0.737
	C79.064,141.53,81.23,142.819,79.709,152.449"/>
<path fill="#FFFFFF" d="M93.116,134.71c0.553-0.138,0.737,0.14,0.646,0.646l-1.014,6.451h4.561c0.507,0,0.692,0.23,0.645,0.69
	l-0.506,2.903c-0.046,0.506-0.323,0.736-0.83,0.736h-4.561l-2.212,14.053c-0.323,2.027,0.23,2.443,2.488,2.443h2.027
	c0.507,0,0.737,0.184,0.692,0.645l-0.461,3.041c-0.139,0.507-0.415,0.738-0.875,0.83c-1.291,0.23-2.627,0.322-3.318,0.322
	c-3.594,0-7.28-0.092-6.404-5.621l2.487-15.713h-2.626c-0.507,0-0.691-0.23-0.645-0.736l0.461-2.903
	c0.046-0.46,0.368-0.69,0.83-0.69h2.672l0.829-5.299c0.092-0.461,0.322-0.646,0.737-0.738L93.116,134.71z"/>
<path fill="#FFFFFF" d="M114.402,142.037c0.414,0.138,0.645,0.322,0.553,0.828l-0.461,2.812c-0.047,0.507-0.368,0.737-0.829,0.69
	h-4.193c-2.765,0-3.686,0.461-4.009,2.488l-2.811,17.693c-0.045,0.461-0.322,0.691-0.783,0.691h-4.193
	c-0.46,0-0.645-0.23-0.598-0.691l3.04-19.121c0.876-5.484,5.3-5.898,8.755-5.898C110.07,141.529,113.204,141.668,114.402,142.037"/>
<path fill="#FFFFFF" d="M135.412,149.086l-2.579,16.035c-0.048,0.598-0.231,1.059-1.107,1.336
	c-2.532,0.689-6.634,1.014-10.551,1.014c-6.451,0-9.538-1.014-8.524-7.695c0.969-5.852,4.285-7.326,9.953-7.326h6.68l0.371-2.395
	c0.367-2.582-0.924-3.688-4.609-3.688h-7.602c-0.508,0-0.646-0.139-0.554-0.736l0.461-2.766c0.093-0.553,0.277-0.645,0.737-0.736
	c2.857-0.508,5.345-0.6,7.74-0.6C133.938,141.529,136.195,144.109,135.412,149.086 M122.281,156.458
	c-2.442,0-3.687,0.784-4.056,3.087c-0.413,2.627,0.737,3.271,4.147,3.271c1.152,0,3.686-0.092,5.345-0.506l0.921-5.853H122.281z"/>
<path fill="#FFFFFF" d="M163.195,132.037c0.507,0,0.691,0.184,0.6,0.691l-5.207,32.945c-0.092,0.645-0.461,0.875-1.014,0.967
	c-4.009,0.646-6.681,0.83-9.998,0.83c-9.308,0-10.875-2.627-9.261-12.947c1.612-10.23,4.054-12.993,12.624-12.993
	c2.396,0,4.285,0.091,5.852,0.276l1.428-9.078c0.047-0.508,0.324-0.691,0.783-0.691H163.195z M150.985,146.367
	c-5.16,0-6.036,1.521-7.096,8.156c-1.013,6.266-0.783,8.109,4.378,8.109c1.474,0,3.593-0.139,5.253-0.369l2.532-15.896H150.985z"/>
<path fill="#FFFFFF" d="M186.186,154.016l-0.23,1.383c-0.138,0.876-0.415,1.244-1.751,1.244h-14.56
	c-0.646,4.884,0.277,5.99,4.746,5.99h7.832c0.461,0,0.646,0.229,0.6,0.691l-0.461,2.855c-0.046,0.507-0.323,0.691-0.783,0.783
	c-2.441,0.369-5.345,0.508-8.293,0.508c-8.984,0-10.598-2.58-8.984-12.947c1.657-10.414,4.146-12.994,13.084-12.994
	C186.049,141.529,187.706,144.018,186.186,154.016 M170.243,152.633h10.551c0.738-4.975-0.045-6.266-4.146-6.266
	C172.363,146.367,171.119,147.658,170.243,152.633"/>
</svg>
